<svg id="visual" viewBox="0 0 2560 1440" width="2560" height="1440" xmlns="http://www.w3.org/2000/svg" xmlns:xlink="http://www.w3.org/1999/xlink" version="1.1"><path d="M0 203L38.8 186.2C77.7 169.3 155.3 135.7 232.8 128.3C310.3 121 387.7 140 465.2 159.2C542.7 178.3 620.3 197.7 698 200.2C775.7 202.7 853.3 188.3 931 193.2C1008.7 198 1086.3 222 1163.8 224.3C1241.3 226.7 1318.7 207.3 1396.2 204.8C1473.7 202.3 1551.3 216.7 1629 202.3C1706.7 188 1784.3 145 1862 121C1939.7 97 2017.3 92 2094.8 104C2172.3 116 2249.7 145 2327.2 166.7C2404.7 188.3 2482.3 202.7 2521.2 209.8L2560 217L2560 0L2521.2 0C2482.3 0 2404.7 0 2327.2 0C2249.7 0 2172.3 0 2094.8 0C2017.3 0 1939.7 0 1862 0C1784.3 0 1706.7 0 1629 0C1551.3 0 1473.7 0 1396.2 0C1318.7 0 1241.3 0 1163.8 0C1086.3 0 1008.7 0 931 0C853.3 0 775.7 0 698 0C620.3 0 542.7 0 465.2 0C387.7 0 310.3 0 232.8 0C155.3 0 77.7 0 38.8 0L0 0Z" fill="#ffeec7"></path><path d="M0 433L38.8 449.8C77.7 466.7 155.3 500.3 232.8 505.2C310.3 510 387.7 486 465.2 488.3C542.7 490.7 620.3 519.3 698 502.5C775.7 485.7 853.3 423.3 931 430.5C1008.7 437.7 1086.3 514.3 1163.8 538.3C1241.3 562.3 1318.7 533.7 1396.2 562.5C1473.7 591.3 1551.3 677.7 1629 663.3C1706.7 649 1784.3 534 1862 488.5C1939.7 443 2017.3 467 2094.8 471.7C2172.3 476.3 2249.7 461.7 2327.2 456.8C2404.7 452 2482.3 457 2521.2 459.5L2560 462L2560 215L2521.2 207.8C2482.3 200.7 2404.7 186.3 2327.2 164.7C2249.7 143 2172.3 114 2094.8 102C2017.3 90 1939.7 95 1862 119C1784.3 143 1706.7 186 1629 200.3C1551.3 214.7 1473.7 200.3 1396.2 202.8C1318.7 205.3 1241.3 224.7 1163.8 222.3C1086.3 220 1008.7 196 931 191.2C853.3 186.3 775.7 200.7 698 198.2C620.3 195.7 542.7 176.3 465.2 157.2C387.7 138 310.3 119 232.8 126.3C155.3 133.7 77.7 167.3 38.8 184.2L0 201Z" fill="#e2ca96"></path><path d="M0 620L38.8 653.7C77.7 687.3 155.3 754.7 232.8 781.2C310.3 807.7 387.7 793.3 465.2 795.7C542.7 798 620.3 817 698 805C775.7 793 853.3 750 931 740.5C1008.7 731 1086.3 755 1163.8 767C1241.3 779 1318.7 779 1396.2 805.3C1473.7 831.7 1551.3 884.3 1629 881.8C1706.7 879.3 1784.3 821.7 1862 797.7C1939.7 773.7 2017.3 783.3 2094.8 761.8C2172.3 740.3 2249.7 687.7 2327.2 692.5C2404.7 697.3 2482.3 759.7 2521.2 790.8L2560 822L2560 460L2521.2 457.5C2482.3 455 2404.7 450 2327.2 454.8C2249.7 459.7 2172.3 474.3 2094.8 469.7C2017.3 465 1939.7 441 1862 486.5C1784.3 532 1706.7 647 1629 661.3C1551.3 675.7 1473.7 589.3 1396.2 560.5C1318.7 531.7 1241.3 560.3 1163.8 536.3C1086.3 512.3 1008.7 435.7 931 428.5C853.3 421.3 775.7 483.7 698 500.5C620.3 517.3 542.7 488.7 465.2 486.3C387.7 484 310.3 508 232.8 503.2C155.3 498.3 77.7 464.7 38.8 447.8L0 431Z" fill="#c6a767"></path><path d="M0 894L38.8 915.5C77.7 937 155.3 980 232.8 1004C310.3 1028 387.7 1033 465.2 1049.8C542.7 1066.7 620.3 1095.3 698 1085.7C775.7 1076 853.3 1028 931 1011.2C1008.7 994.3 1086.3 1008.7 1163.8 996.7C1241.3 984.7 1318.7 946.3 1396.2 956C1473.7 965.7 1551.3 1023.3 1629 1033C1706.7 1042.7 1784.3 1004.3 1862 1002C1939.7 999.7 2017.3 1033.3 2094.8 1016.5C2172.3 999.7 2249.7 932.3 2327.2 920.3C2404.7 908.3 2482.3 951.7 2521.2 973.3L2560 995L2560 820L2521.2 788.8C2482.3 757.7 2404.7 695.3 2327.2 690.5C2249.7 685.7 2172.3 738.3 2094.8 759.8C2017.3 781.3 1939.7 771.7 1862 795.7C1784.3 819.7 1706.7 877.3 1629 879.8C1551.3 882.3 1473.7 829.7 1396.2 803.3C1318.7 777 1241.3 777 1163.8 765C1086.3 753 1008.7 729 931 738.5C853.3 748 775.7 791 698 803C620.3 815 542.7 796 465.2 793.7C387.7 791.3 310.3 805.7 232.8 779.2C155.3 752.7 77.7 685.3 38.8 651.7L0 618Z" fill="#aa8539"></path><path d="M0 1441L38.8 1441C77.7 1441 155.3 1441 232.8 1441C310.3 1441 387.7 1441 465.2 1441C542.7 1441 620.3 1441 698 1441C775.7 1441 853.3 1441 931 1441C1008.7 1441 1086.3 1441 1163.8 1441C1241.3 1441 1318.7 1441 1396.2 1441C1473.7 1441 1551.3 1441 1629 1441C1706.7 1441 1784.3 1441 1862 1441C1939.7 1441 2017.3 1441 2094.8 1441C2172.3 1441 2249.7 1441 2327.2 1441C2404.7 1441 2482.3 1441 2521.2 1441L2560 1441L2560 993L2521.2 971.3C2482.3 949.7 2404.7 906.3 2327.2 918.3C2249.7 930.3 2172.3 997.7 2094.8 1014.5C2017.3 1031.3 1939.7 997.7 1862 1000C1784.3 1002.3 1706.7 1040.7 1629 1031C1551.3 1021.3 1473.7 963.7 1396.2 954C1318.7 944.3 1241.3 982.7 1163.8 994.7C1086.3 1006.7 1008.7 992.3 931 1009.2C853.3 1026 775.7 1074 698 1083.7C620.3 1093.3 542.7 1064.7 465.2 1047.8C387.7 1031 310.3 1026 232.8 1002C155.3 978 77.7 935 38.8 913.5L0 892Z" fill="#8e6401"></path></svg>