<svg id="visual" viewBox="0 0 2560 1440" width="2560" height="1440" xmlns="http://www.w3.org/2000/svg" xmlns:xlink="http://www.w3.org/1999/xlink" version="1.1"><rect x="0" y="0" width="2560" height="1440" fill="#191919"></rect><defs><linearGradient id="grad1_0" x1="43.8%" y1="0%" x2="100%" y2="100%"><stop offset="14.444444444444446%" stop-color="#f9e784" stop-opacity="1"></stop><stop offset="85.55555555555554%" stop-color="#f9e784" stop-opacity="1"></stop></linearGradient></defs><defs><linearGradient id="grad1_1" x1="43.8%" y1="0%" x2="100%" y2="100%"><stop offset="14.444444444444446%" stop-color="#f9e784" stop-opacity="1"></stop><stop offset="85.55555555555554%" stop-color="#a79b5e" stop-opacity="1"></stop></linearGradient></defs><defs><linearGradient id="grad1_2" x1="43.8%" y1="0%" x2="100%" y2="100%"><stop offset="14.444444444444446%" stop-color="#5b563a" stop-opacity="1"></stop><stop offset="85.55555555555554%" stop-color="#a79b5e" stop-opacity="1"></stop></linearGradient></defs><defs><linearGradient id="grad1_3" x1="43.8%" y1="0%" x2="100%" y2="100%"><stop offset="14.444444444444446%" stop-color="#5b563a" stop-opacity="1"></stop><stop offset="85.55555555555554%" stop-color="#191919" stop-opacity="1"></stop></linearGradient></defs><defs><linearGradient id="grad2_0" x1="0%" y1="0%" x2="56.3%" y2="100%"><stop offset="14.444444444444446%" stop-color="#f9e784" stop-opacity="1"></stop><stop offset="85.55555555555554%" stop-color="#f9e784" stop-opacity="1"></stop></linearGradient></defs><defs><linearGradient id="grad2_1" x1="0%" y1="0%" x2="56.3%" y2="100%"><stop offset="14.444444444444446%" stop-color="#a79b5e" stop-opacity="1"></stop><stop offset="85.55555555555554%" stop-color="#f9e784" stop-opacity="1"></stop></linearGradient></defs><defs><linearGradient id="grad2_2" x1="0%" y1="0%" x2="56.3%" y2="100%"><stop offset="14.444444444444446%" stop-color="#a79b5e" stop-opacity="1"></stop><stop offset="85.55555555555554%" stop-color="#5b563a" stop-opacity="1"></stop></linearGradient></defs><defs><linearGradient id="grad2_3" x1="0%" y1="0%" x2="56.3%" y2="100%"><stop offset="14.444444444444446%" stop-color="#191919" stop-opacity="1"></stop><stop offset="85.55555555555554%" stop-color="#5b563a" stop-opacity="1"></stop></linearGradient></defs><g transform="translate(2560, 0)"><path d="M0 1296C-97 1141.9 -193.9 987.8 -304.1 935.8C-414.2 883.8 -537.5 933.9 -674.8 928.8C-812 923.6 -963.3 863.1 -1048.5 761.8C-1133.7 660.4 -1152.9 518.2 -1183.1 384.4C-1213.4 250.6 -1254.7 125.3 -1296 0L0 0Z" fill="#393629"></path><path d="M0 972C-72.7 856.4 -145.5 740.9 -228.1 701.9C-310.7 662.9 -403.1 700.5 -506.1 696.6C-609 692.7 -722.5 647.3 -786.4 571.3C-850.3 495.3 -864.7 388.6 -887.3 288.3C-910 188 -941 94 -972 0L0 0Z" fill="#80774c"></path><path d="M0 648C-48.5 571 -97 493.9 -152 467.9C-207.1 441.9 -268.8 467 -337.4 464.4C-406 461.8 -481.6 431.6 -524.2 380.9C-566.8 330.2 -576.4 259.1 -591.6 192.2C-606.7 125.3 -627.3 62.7 -648 0L0 0Z" fill="#cfc071"></path><path d="M0 324C-24.2 285.5 -48.5 247 -76 234C-103.6 221 -134.4 233.5 -168.7 232.2C-203 230.9 -240.8 215.8 -262.1 190.4C-283.4 165.1 -288.2 129.5 -295.8 96.1C-303.3 62.7 -313.7 31.3 -324 0L0 0Z" fill="#f9e784"></path></g><g transform="translate(0, 1440)"><path d="M0 -1296C117.2 -1236.8 234.4 -1177.5 374.5 -1152.7C514.6 -1127.8 677.6 -1137.4 761.8 -1048.5C845.9 -959.6 851.2 -772.3 883.4 -641.9C915.7 -511.5 974.8 -438 1048.1 -340.5C1121.3 -243.1 1208.7 -121.5 1296 0L0 0Z" fill="#393629"></path><path d="M0 -972C87.9 -927.6 175.8 -883.1 280.9 -864.5C386 -845.9 508.2 -853 571.3 -786.4C634.4 -719.7 638.4 -579.2 662.6 -481.4C686.8 -383.6 731.1 -328.5 786 -255.4C841 -182.3 906.5 -91.1 972 0L0 0Z" fill="#80774c"></path><path d="M0 -648C58.6 -618.4 117.2 -588.8 187.3 -576.3C257.3 -563.9 338.8 -568.7 380.9 -524.2C423 -479.8 425.6 -386.1 441.7 -320.9C457.8 -255.7 487.4 -219 524 -170.3C560.7 -121.5 604.3 -60.8 648 0L0 0Z" fill="#cfc071"></path><path d="M0 -324C29.3 -309.2 58.6 -294.4 93.6 -288.2C128.7 -282 169.4 -284.3 190.4 -262.1C211.5 -239.9 212.8 -193.1 220.9 -160.5C228.9 -127.9 243.7 -109.5 262 -85.1C280.3 -60.8 302.2 -30.4 324 0L0 0Z" fill="#f9e784"></path></g></svg>